<svg width="18" height="18" viewBox="0 0 18 18" fill="none" xmlns="http://www.w3.org/2000/svg">
<g clip-path="url(#clip0_149_5018)">
<path d="M6.09099 3.65901C6.96967 4.53769 6.96967 5.96231 6.09099 6.84099C5.21231 7.71967 3.78769 7.71967 2.90901 6.84099C2.03033 5.96231 2.03033 4.53769 2.90901 3.65901C3.78769 2.78033 5.21231 2.78033 6.09099 3.65901Z" stroke="#008080" stroke-width="1.5" stroke-linecap="round" stroke-linejoin="round"/>
<path d="M15 5.25H6.75" stroke="#008080" stroke-width="1.5" stroke-linecap="round" stroke-linejoin="round"/>
<path d="M15.091 11.159C15.9697 12.0377 15.9697 13.4623 15.091 14.341C14.2123 15.2197 12.7877 15.2197 11.909 14.341C11.0303 13.4623 11.0303 12.0377 11.909 11.159C12.7877 10.2803 14.2123 10.2803 15.091 11.159Z" stroke="#008080" stroke-width="1.5" stroke-linecap="round" stroke-linejoin="round"/>
<path d="M3 12.75H11.25" stroke="#008080" stroke-width="1.5" stroke-linecap="round" stroke-linejoin="round"/>
</g>
<defs>
<clipPath id="clip0_149_5018">
<rect width="18" height="18" fill="white"/>
</clipPath>
</defs>
</svg>
