<svg width="18" height="18" viewBox="0 0 18 18" fill="none" xmlns="http://www.w3.org/2000/svg">
<g clip-path="url(#clip0_221_6210)">
<path d="M15.5303 3.53044L14.4697 2.46994C14.1765 2.17669 13.7017 2.17669 13.4092 2.46994L5.46975 10.4094C5.32875 10.5497 5.25 10.7409 5.25 10.9397V12.7502H7.0605C7.25925 12.7502 7.4505 12.6714 7.59075 12.5304L15.5303 4.59094C15.8235 4.29844 15.8235 3.82369 15.5303 3.53044Z" stroke="#008080" stroke-width="1.5" stroke-linecap="round" stroke-linejoin="round"/>
<path d="M14.1824 5.93238L12.0674 3.81738" stroke="#008080" stroke-width="1.5" stroke-linecap="round" stroke-linejoin="round"/>
<path d="M15.75 8.25V14.25C15.75 15.0788 15.0788 15.75 14.25 15.75H3.75C2.92125 15.75 2.25 15.0788 2.25 14.25V3.75C2.25 2.92125 2.92125 2.25 3.75 2.25H9.75" stroke="#008080" stroke-width="1.5" stroke-linecap="round" stroke-linejoin="round"/>
</g>
<defs>
<clipPath id="clip0_221_6210">
<rect width="18" height="18" fill="white"/>
</clipPath>
</defs>
</svg>
