<svg width="19" height="11" viewBox="0 0 19 11" fill="none" xmlns="http://www.w3.org/2000/svg">
<path fill-rule="evenodd" clip-rule="evenodd" d="M9.5446 1C8.55514 1.98947 7.16989 4.56208 9.5446 6.93679V1ZM10.2861 1C11.2755 1.98947 12.6608 4.56208 10.2861 6.93679V1Z" fill="#008080"/>
<path d="M9.5446 1H9.91565V0.104207L9.28223 0.737628L9.5446 1ZM9.5446 6.93679L9.28223 7.19916L9.91565 7.83259V6.93679H9.5446ZM10.2861 1L10.5484 0.737628L9.91503 0.104207V1H10.2861ZM10.2861 6.93679H9.91503V7.83259L10.5484 7.19916L10.2861 6.93679ZM9.28223 0.737628C8.74551 1.27435 8.10513 2.23244 7.91681 3.38931C7.72473 4.56919 8.00936 5.92629 9.28223 7.19916L9.80697 6.67442C8.70513 5.57257 8.49502 4.45602 8.64926 3.50855C8.80725 2.53806 9.35423 1.71512 9.80697 1.26237L9.28223 0.737628ZM9.91565 6.93679V1H9.17355V6.93679H9.91565ZM10.0237 1.26237C10.4765 1.71512 11.0234 2.53806 11.1814 3.50855C11.3357 4.45602 11.1256 5.57257 10.0237 6.67442L10.5484 7.19916C11.8213 5.92629 12.1059 4.56919 11.9139 3.38931C11.7255 2.23244 11.0852 1.27435 10.5484 0.737628L10.0237 1.26237ZM10.6571 6.93679V1H9.91503V6.93679H10.6571Z" fill="#008080"/>
<path fill-rule="evenodd" clip-rule="evenodd" d="M1.93114 7.18093C3.15899 6.50976 6.01739 5.90413 7.62819 8.85098L1.93114 7.18093ZM1.72243 7.89313C2.39359 9.12098 4.47264 11.174 7.41948 9.56318L1.72243 7.89313Z" fill="#008080"/>
<path d="M1.93114 7.18093L1.75317 6.85534L0.967139 7.285L1.82676 7.53699L1.93114 7.18093ZM7.62819 8.85098L7.52381 9.20704L8.38343 9.45903L7.95378 8.67301L7.62819 8.85098ZM1.72243 7.89313L1.8268 7.53706L0.967185 7.28507L1.39684 8.0711L1.72243 7.89313ZM7.41948 9.56318L7.59745 9.88876L8.38348 9.45911L7.52386 9.20712L7.41948 9.56318ZM2.10911 7.50651C2.67093 7.1994 3.61451 6.90601 4.59025 7.02741C5.54285 7.14593 6.55521 7.66164 7.30261 9.02895L7.95378 8.67301C7.09037 7.09347 5.86813 6.43858 4.68187 6.29099C3.51874 6.14628 2.41919 6.49128 1.75317 6.85534L2.10911 7.50651ZM7.73257 8.49491L2.03552 6.82486L1.82676 7.53699L7.52381 9.20704L7.73257 8.49491ZM1.39684 8.0711C1.76091 8.73713 2.50017 9.62116 3.55734 10.1273C4.63554 10.6435 6.01792 10.7522 7.59745 9.88876L7.24151 9.2376C5.8742 9.985 4.74363 9.87252 3.87781 9.45798C2.99096 9.03337 2.35511 8.27698 2.04801 7.71516L1.39684 8.0711ZM7.52386 9.20712L1.8268 7.53706L1.61805 8.2492L7.3151 9.91925L7.52386 9.20712Z" fill="#008080"/>
<path fill-rule="evenodd" clip-rule="evenodd" d="M17.6636 7.18093C16.4357 6.50976 13.5773 5.90413 11.9665 8.85098L17.6636 7.18093ZM17.8723 7.89313C17.2011 9.12098 15.1221 11.174 12.1752 9.56318L17.8723 7.89313Z" fill="#008080"/>
<path d="M17.6636 7.18093L17.8416 6.85534L18.6276 7.285L17.768 7.53699L17.6636 7.18093ZM11.9665 8.85098L12.0709 9.20704L11.2113 9.45903L11.641 8.67301L11.9665 8.85098ZM17.8723 7.89313L17.7679 7.53706L18.6275 7.28507L18.1979 8.0711L17.8723 7.89313ZM12.1752 9.56318L11.9973 9.88876L11.2112 9.45911L12.0709 9.20712L12.1752 9.56318ZM17.4856 7.50651C16.9238 7.1994 15.9802 6.90601 15.0045 7.02741C14.0519 7.14593 13.0395 7.66164 12.2921 9.02895L11.641 8.67301C12.5044 7.09347 13.7266 6.43858 14.9129 6.29099C16.076 6.14628 17.1755 6.49128 17.8416 6.85534L17.4856 7.50651ZM11.8622 8.49491L17.5592 6.82486L17.768 7.53699L12.0709 9.20704L11.8622 8.49491ZM18.1979 8.0711C17.8338 8.73713 17.0946 9.62116 16.0374 10.1273C14.9592 10.6435 13.5768 10.7522 11.9973 9.88876L12.3532 9.2376C13.7205 9.985 14.8511 9.87252 15.7169 9.45798C16.6038 9.03337 17.2396 8.27698 17.5467 7.71516L18.1979 8.0711ZM12.0709 9.20712L17.7679 7.53706L17.9767 8.2492L12.2796 9.91925L12.0709 9.20712Z" fill="#008080"/>
</svg>
