<svg xmlns="http://www.w3.org/2000/svg" width="18" height="18" viewBox="0 0 18 18" fill="none">
  <g clip-path="url(#clip0_198_3940)">
    <path d="M6 15.75H4.5C4.30307 15.7501 4.10806 15.7113 3.9261 15.636C3.74414 15.5607 3.5788 15.4503 3.43951 15.3111C3.30022 15.1719 3.18972 15.0066 3.11431 14.8247C3.03889 14.6427 3.00005 14.4478 3 14.2508V3.75C2.99994 3.55307 3.03868 3.35806 3.11399 3.1761C3.1893 2.99414 3.29971 2.8288 3.43893 2.68951C3.57814 2.55022 3.74342 2.43972 3.92534 2.36431C4.10726 2.28889 4.30225 2.25005 4.49918 2.25H13.5C13.6969 2.24994 13.8919 2.28868 14.0739 2.36399C14.2559 2.4393 14.4212 2.54971 14.5605 2.68893C14.6998 2.82814 14.8103 2.99342 14.8857 3.17534C14.9611 3.35726 14.9999 3.55225 15 3.74918V7.5" stroke="#050505" stroke-width="1.5" stroke-linecap="round" stroke-linejoin="round"/>
    <path d="M2.3418 6H4.12496" stroke="#050505" stroke-width="1.5" stroke-linecap="round" stroke-linejoin="round"/>
    <path d="M2.3418 9H4.12496" stroke="#050505" stroke-width="1.5" stroke-linecap="round" stroke-linejoin="round"/>
    <path d="M2.25 12H4.125" stroke="#050505" stroke-width="1.5" stroke-linecap="round" stroke-linejoin="round"/>
    <path d="M8.25 11.25V14.25C8.25 14.6478 8.40804 15.0294 8.68934 15.3107C8.97064 15.592 9.35218 15.75 9.75 15.75H14.25C14.6478 15.75 15.0294 15.592 15.3107 15.3107C15.592 15.0294 15.75 14.6478 15.75 14.25V11.25C15.75 10.8522 15.592 10.4706 15.3107 10.1893C15.0294 9.90804 14.6478 9.75 14.25 9.75H9.75C9.35218 9.75 8.97064 9.90804 8.68934 10.1893C8.40804 10.4706 8.25 10.8522 8.25 11.25Z" stroke="#323232" stroke-width="1.5" stroke-linecap="round" stroke-linejoin="round"/>
    <path d="M10.3125 12L11.6667 12.6719C11.7703 12.7233 11.8844 12.75 12 12.75C12.1157 12.75 12.2298 12.7233 12.3334 12.6719L13.6875 12" stroke="#323232" stroke-width="1.5" stroke-linecap="round" stroke-linejoin="round"/>
  </g>
  <defs>
    <clipPath id="clip0_198_3940">
      <rect width="18" height="18" fill="white"/>
    </clipPath>
  </defs>
</svg>