<svg xmlns="http://www.w3.org/2000/svg" width="18" height="18" viewBox="0 0 18 18" fill="none">
<path d="M7.25 14.3184V14.0139C7.24881 13.5977 7.08297 13.1989 6.7887 12.9047C6.49443 12.6104 6.09566 12.4445 5.6795 12.4434H3.5705C3.15434 12.4445 2.75557 12.6104 2.4613 12.9047C2.16703 13.1989 2.00119 13.5977 2 14.0139V14.3184C2 14.4178 2.03951 14.5132 2.10984 14.5835C2.18016 14.6539 2.27554 14.6934 2.375 14.6934H6.875C6.97446 14.6934 7.06984 14.6539 7.14017 14.5835C7.21049 14.5132 7.25 14.4178 7.25 14.3184Z" stroke="#050505" stroke-width="1.125" stroke-linecap="round" stroke-linejoin="round"/>
<path d="M16 14.3184V14.0139C15.9988 13.5977 15.833 13.1989 15.5387 12.9047C15.2444 12.6104 14.8457 12.4445 14.4295 12.4434H12.3205C11.9043 12.4445 11.5056 12.6104 11.2113 12.9047C10.917 13.1989 10.7512 13.5977 10.75 14.0139V14.3184C10.75 14.4178 10.7895 14.5132 10.8598 14.5835C10.9302 14.6539 11.0255 14.6934 11.125 14.6934H15.625C15.7245 14.6934 15.8198 14.6539 15.8902 14.5835C15.9605 14.5132 16 14.4178 16 14.3184Z" stroke="#050505" stroke-width="1.125" stroke-linecap="round" stroke-linejoin="round"/>
<path d="M4.625 10.5684C5.45343 10.5684 6.125 9.89679 6.125 9.06836C6.125 8.23993 5.45343 7.56836 4.625 7.56836C3.79657 7.56836 3.125 8.23993 3.125 9.06836C3.125 9.89679 3.79657 10.5684 4.625 10.5684Z" stroke="#050505" stroke-width="1.125" stroke-linecap="round" stroke-linejoin="round"/>
<path d="M13.375 10.5684C14.2034 10.5684 14.875 9.89679 14.875 9.06836C14.875 8.23993 14.2034 7.56836 13.375 7.56836C12.5466 7.56836 11.875 8.23993 11.875 9.06836C11.875 9.89679 12.5466 10.5684 13.375 10.5684Z" stroke="#323232" stroke-width="1.125" stroke-linecap="round" stroke-linejoin="round"/>
<path d="M9.05078 6.30664C9.87921 6.30664 10.5508 5.63507 10.5508 4.80664C10.5508 3.97821 9.87921 3.30664 9.05078 3.30664C8.22235 3.30664 7.55078 3.97821 7.55078 4.80664C7.55078 5.63507 8.22235 6.30664 9.05078 6.30664Z" stroke="#323232" stroke-width="1.125" stroke-linecap="round" stroke-linejoin="round"/>
</svg>