<svg width="18" height="18" viewBox="0 0 18 18" fill="none" xmlns="http://www.w3.org/2000/svg">
<path d="M10.6223 15.7501L13.9553 15.0091C14.5658 14.8741 15 14.3326 15 13.7079V4.3246C15 3.69985 14.5657 3.15835 13.956 3.02335L10.623 2.28235C9.78975 2.0971 9 2.73085 9 3.58435V14.4489C9 15.3016 9.78975 15.9354 10.6223 15.7501Z" stroke="#050505" stroke-width="1.5" stroke-linecap="round" stroke-linejoin="round"/>
<path d="M11.25 8.23535V9.73535" stroke="#050505" stroke-width="1.5" stroke-linecap="round" stroke-linejoin="round"/>
<path d="M3 12V13.5315C3 14.3602 3.67125 15.0315 4.5 15.0315H6.75" stroke="#050505" stroke-width="1.5" stroke-linecap="round" stroke-linejoin="round"/>
<path d="M3 6V4.5C3 3.67125 3.67125 3 4.5 3H6.75" stroke="#323232" stroke-width="1.5" stroke-linecap="round" stroke-linejoin="round"/>
<path d="M3 9H6.75" stroke="#323232" stroke-width="1.5" stroke-linecap="round" stroke-linejoin="round"/>
<path d="M5.25 10.5L6.75 9L5.25 7.5" stroke="#323232" stroke-width="1.5" stroke-linecap="round" stroke-linejoin="round"/>
</svg>
