<svg width="64" height="64" viewBox="0 0 64 64" fill="none" xmlns="http://www.w3.org/2000/svg">
<g clip-path="url(#clip0_491_20315)">
<path d="M45.3332 54.8564C43.1252 52.1898 40.2292 50.8564 37.3332 50.8564C40.2292 50.8564 43.1252 49.5231 45.3332 46.8564" stroke="#323232" stroke-width="4" stroke-linecap="round" stroke-linejoin="round"/>
<path d="M26.6668 42.49V58.666H37.3335V42.4873" stroke="#323232" stroke-width="4" stroke-linecap="round" stroke-linejoin="round"/>
<path d="M37.3335 50.8545H26.6668" stroke="#323232" stroke-width="4" stroke-linecap="round" stroke-linejoin="round"/>
<path d="M51.8424 27.8845C52.317 27.5778 52.773 27.2285 53.189 26.8125L58.6664 21.3325C56.4104 19.0765 53.389 18.0472 50.437 18.2498C50.637 15.2978 49.6104 12.2765 47.3544 10.0205L41.877 15.4978C39.2664 18.1058 38.8664 22.0525 40.613 25.1085" stroke="#323232" stroke-width="4" stroke-linecap="round" stroke-linejoin="round"/>
<path d="M52.2427 32.8958L38.9307 41.7704C38.0534 42.3544 37.024 42.6664 35.9707 42.6664H28.024C26.9707 42.6664 25.9414 42.3544 25.0667 41.7704L11.7547 32.8958C10.432 32.0131 10.192 30.1944 11.184 28.9491C13.2934 26.2958 16.5467 24.5864 20.2054 24.5864C21.3227 24.5864 22.4134 24.8104 23.448 25.1171C25.5707 22.7971 28.6187 21.3438 31.9974 21.3438C35.376 21.3438 38.424 22.7971 40.576 25.1171C41.6107 24.8104 42.672 24.5864 43.8187 24.5864C47.4534 24.5864 50.704 26.2958 52.816 28.9491C53.8027 30.1944 53.5654 32.0131 52.2427 32.8958Z" stroke="#323232" stroke-width="4" stroke-linecap="round" stroke-linejoin="round"/>
<path d="M36.7997 22.3933C38.7544 20.9346 40.037 18.6253 40.037 15.9986V8.25195C36.845 8.25195 33.9837 9.65995 32.037 11.892C30.0904 9.66262 27.229 8.25195 24.037 8.25195V15.9986C24.037 18.6093 25.3064 20.9053 27.2424 22.3666" stroke="#323232" stroke-width="4" stroke-linecap="round" stroke-linejoin="round"/>
<path d="M12.1572 27.8845C11.6825 27.5778 11.2265 27.2285 10.8105 26.8125L5.33316 21.3325C7.58916 19.0765 10.6105 18.0472 13.5625 18.2498C13.3625 15.2978 14.3892 12.2765 16.6452 10.0205L22.1225 15.4978C24.7332 18.1058 25.1332 22.0525 23.3865 25.1085" stroke="#323232" stroke-width="4" stroke-linecap="round" stroke-linejoin="round"/>
</g>
<defs>
<clipPath id="clip0_491_20315">
<rect width="64" height="64" fill="white"/>
</clipPath>
</defs>
</svg>
