<svg xmlns="http://www.w3.org/2000/svg" width="18" height="18" viewBox="0 0 18 18" fill="none">
<g clip-path="url(#clip0_198_3878)">
<path d="M3 10.5V6.75C3 6.35218 3.15804 5.97064 3.43934 5.68934C3.72064 5.40804 4.10218 5.25 4.5 5.25H13.5C13.8978 5.25 14.2794 5.40804 14.5607 5.68934C14.842 5.97064 15 6.35218 15 6.75V14.25C15 14.6478 14.842 15.0294 14.5607 15.3107C14.2794 15.592 13.8978 15.75 13.5 15.75H9.75" stroke="#050505" stroke-width="1.5" stroke-linecap="round" stroke-linejoin="round"/>
<path d="M11.625 5.25V4.5C11.625 3.80381 11.3484 3.13613 10.8562 2.64384C10.3639 2.15156 9.69619 1.875 9 1.875C8.30381 1.875 7.63613 2.15156 7.14384 2.64384C6.65156 3.13613 6.375 3.80381 6.375 4.5V5.25" stroke="#050505" stroke-width="1.5" stroke-linecap="round" stroke-linejoin="round"/>
<path d="M3 13.5H6.75" stroke="#050505" stroke-width="1.5" stroke-linecap="round" stroke-linejoin="round"/>
<path d="M4.5 15.75H6.75" stroke="#050505" stroke-width="1.5" stroke-linecap="round" stroke-linejoin="round"/>
</g>
<defs>
<clipPath id="clip0_198_3878">
<rect width="18" height="18" fill="white"/>
</clipPath>
</defs>
</svg>